<?xml version="1.0" encoding="UTF-8"?>
<svg xmlns="http://www.w3.org/2000/svg" xmlns:xlink="http://www.w3.org/1999/xlink" width="72pt" height="128pt" viewBox="0 0 72 128" version="1.1">
<g id="surface1">
<path style=" stroke:none;fill-rule:nonzero;fill:rgb(0%,0%,0%);fill-opacity:1;" d="M 54 116 L 44 116 L 44 86.703125 C 61.117188 82.730469 73.511719 66.726562 71.851562 48.164062 L 67.863281 3.636719 C 67.675781 1.578125 65.976562 0 63.933594 0 L 8.066406 0 C 6.027344 0 4.324219 1.578125 4.140625 3.636719 L 0.148438 48.164062 C -1.511719 66.726562 10.882812 82.734375 28 86.703125 L 28 116 L 18 116 C 12.476562 116 8 120.476562 8 126 C 8 127.105469 8.894531 128 10 128 L 62 128 C 63.105469 128 64 127.105469 64 126 C 64 120.476562 59.523438 116 54 116 Z M 15.4375 12 L 56.5625 12 L 58.355469 32 L 13.644531 32 Z M 15.4375 12 "/>
</g>
</svg>
